<mxfile host="app.diagrams.net" modified="2024-01-14T05:52:54.268Z" agent="Mozilla/5.0 (Windows NT 10.0; Win64; x64) AppleWebKit/537.36 (KHTML, like Gecko) Chrome/120.0.0.0 Safari/537.36 Edg/120.0.0.0" etag="vuLoUIzhWiKgtgpej9yX" version="22.1.18" type="github" pages="2">
  <diagram name="第 1 页" id="Vi6s87BLKGOY_doo5CWs">
    <mxGraphModel dx="1573" dy="665" grid="1" gridSize="10" guides="1" tooltips="1" connect="1" arrows="1" fold="1" page="0" pageScale="1" pageWidth="827" pageHeight="1169" math="0" shadow="0">
      <root>
        <mxCell id="0" />
        <mxCell id="1" parent="0" />
        <mxCell id="7nEyidCCf9qnmZsaLRMb-1" value="&lt;font style=&quot;font-size: 16px;&quot;&gt;在线心理分析系统&lt;/font&gt;" style="rounded=0;whiteSpace=wrap;html=1;fontSize=16;fontStyle=0" parent="1" vertex="1">
          <mxGeometry x="260" y="100" width="180" height="60" as="geometry" />
        </mxCell>
        <mxCell id="7nEyidCCf9qnmZsaLRMb-2" value="普通用户" style="rounded=0;whiteSpace=wrap;html=1;fontSize=16;fontStyle=0" parent="1" vertex="1">
          <mxGeometry x="-80" y="210" width="120" height="60" as="geometry" />
        </mxCell>
        <mxCell id="7nEyidCCf9qnmZsaLRMb-3" value="研究人员" style="rounded=0;whiteSpace=wrap;html=1;fontSize=16;fontStyle=0" parent="1" vertex="1">
          <mxGeometry x="290" y="210" width="120" height="60" as="geometry" />
        </mxCell>
        <mxCell id="7nEyidCCf9qnmZsaLRMb-4" value="管理员" style="rounded=0;whiteSpace=wrap;html=1;fontSize=16;fontStyle=0" parent="1" vertex="1">
          <mxGeometry x="650" y="210" width="120" height="60" as="geometry" />
        </mxCell>
        <mxCell id="7nEyidCCf9qnmZsaLRMb-6" value="" style="endArrow=none;html=1;rounded=0;exitX=0.5;exitY=0;exitDx=0;exitDy=0;fontSize=16;fontStyle=0" parent="1" source="7nEyidCCf9qnmZsaLRMb-2" edge="1">
          <mxGeometry width="50" height="50" relative="1" as="geometry">
            <mxPoint x="310" y="220" as="sourcePoint" />
            <mxPoint x="350" y="160" as="targetPoint" />
          </mxGeometry>
        </mxCell>
        <mxCell id="7nEyidCCf9qnmZsaLRMb-7" value="" style="endArrow=none;html=1;rounded=0;entryX=0.5;entryY=1;entryDx=0;entryDy=0;exitX=0.5;exitY=0;exitDx=0;exitDy=0;fontSize=16;fontStyle=0" parent="1" source="7nEyidCCf9qnmZsaLRMb-3" target="7nEyidCCf9qnmZsaLRMb-1" edge="1">
          <mxGeometry width="50" height="50" relative="1" as="geometry">
            <mxPoint x="100" y="440" as="sourcePoint" />
            <mxPoint x="150" y="390" as="targetPoint" />
          </mxGeometry>
        </mxCell>
        <mxCell id="7nEyidCCf9qnmZsaLRMb-8" value="" style="endArrow=none;html=1;rounded=0;entryX=0.5;entryY=1;entryDx=0;entryDy=0;exitX=0.5;exitY=0;exitDx=0;exitDy=0;fontSize=16;fontStyle=0" parent="1" source="7nEyidCCf9qnmZsaLRMb-4" target="7nEyidCCf9qnmZsaLRMb-1" edge="1">
          <mxGeometry width="50" height="50" relative="1" as="geometry">
            <mxPoint x="370" y="320" as="sourcePoint" />
            <mxPoint x="420" y="270" as="targetPoint" />
          </mxGeometry>
        </mxCell>
        <mxCell id="7nEyidCCf9qnmZsaLRMb-10" value="" style="endArrow=none;html=1;rounded=0;entryX=0.168;entryY=1.014;entryDx=0;entryDy=0;entryPerimeter=0;fontSize=16;fontStyle=0" parent="1" target="7nEyidCCf9qnmZsaLRMb-2" edge="1">
          <mxGeometry width="50" height="50" relative="1" as="geometry">
            <mxPoint x="-60" y="520" as="sourcePoint" />
            <mxPoint x="-50" y="340" as="targetPoint" />
          </mxGeometry>
        </mxCell>
        <mxCell id="7nEyidCCf9qnmZsaLRMb-11" value="" style="endArrow=none;html=1;rounded=0;fontSize=16;fontStyle=0" parent="1" target="7nEyidCCf9qnmZsaLRMb-12" edge="1">
          <mxGeometry width="50" height="50" relative="1" as="geometry">
            <mxPoint x="-60" y="320" as="sourcePoint" />
            <mxPoint x="-20" y="320" as="targetPoint" />
          </mxGeometry>
        </mxCell>
        <mxCell id="7nEyidCCf9qnmZsaLRMb-12" value="&lt;font style=&quot;font-size: 16px;&quot;&gt;心理分析&lt;/font&gt;" style="rounded=0;whiteSpace=wrap;html=1;fontSize=16;fontStyle=0" parent="1" vertex="1">
          <mxGeometry y="290" width="120" height="60" as="geometry" />
        </mxCell>
        <mxCell id="7nEyidCCf9qnmZsaLRMb-13" value="" style="endArrow=none;html=1;rounded=0;fontSize=16;fontStyle=0" parent="1" target="7nEyidCCf9qnmZsaLRMb-14" edge="1">
          <mxGeometry width="50" height="50" relative="1" as="geometry">
            <mxPoint x="-60" y="420" as="sourcePoint" />
            <mxPoint y="420" as="targetPoint" />
          </mxGeometry>
        </mxCell>
        <mxCell id="7nEyidCCf9qnmZsaLRMb-14" value="课题组研究进展展示" style="rounded=0;whiteSpace=wrap;html=1;fontSize=16;fontStyle=0" parent="1" vertex="1">
          <mxGeometry y="390" width="120" height="60" as="geometry" />
        </mxCell>
        <mxCell id="7nEyidCCf9qnmZsaLRMb-15" value="" style="endArrow=none;html=1;rounded=0;fontSize=16;fontStyle=0" parent="1" target="7nEyidCCf9qnmZsaLRMb-16" edge="1">
          <mxGeometry width="50" height="50" relative="1" as="geometry">
            <mxPoint x="-60" y="520" as="sourcePoint" />
            <mxPoint y="520" as="targetPoint" />
          </mxGeometry>
        </mxCell>
        <mxCell id="7nEyidCCf9qnmZsaLRMb-16" value="个人信息管理" style="rounded=0;whiteSpace=wrap;html=1;fontSize=16;fontStyle=0" parent="1" vertex="1">
          <mxGeometry y="490" width="120" height="60" as="geometry" />
        </mxCell>
        <mxCell id="7nEyidCCf9qnmZsaLRMb-18" value="" style="endArrow=none;html=1;rounded=0;entryX=0.25;entryY=1;entryDx=0;entryDy=0;fontSize=16;fontStyle=0" parent="1" target="7nEyidCCf9qnmZsaLRMb-3" edge="1">
          <mxGeometry width="50" height="50" relative="1" as="geometry">
            <mxPoint x="320" y="710" as="sourcePoint" />
            <mxPoint x="390" y="320" as="targetPoint" />
          </mxGeometry>
        </mxCell>
        <mxCell id="7nEyidCCf9qnmZsaLRMb-19" value="" style="endArrow=none;html=1;rounded=0;fontSize=16;fontStyle=0" parent="1" target="7nEyidCCf9qnmZsaLRMb-20" edge="1">
          <mxGeometry width="50" height="50" relative="1" as="geometry">
            <mxPoint x="320" y="320" as="sourcePoint" />
            <mxPoint x="390" y="320" as="targetPoint" />
          </mxGeometry>
        </mxCell>
        <mxCell id="7nEyidCCf9qnmZsaLRMb-20" value="心理分析" style="rounded=0;whiteSpace=wrap;html=1;fontSize=16;fontStyle=0" parent="1" vertex="1">
          <mxGeometry x="390" y="290" width="120" height="60" as="geometry" />
        </mxCell>
        <mxCell id="7nEyidCCf9qnmZsaLRMb-21" value="" style="endArrow=none;html=1;rounded=0;fontSize=16;fontStyle=0" parent="1" target="7nEyidCCf9qnmZsaLRMb-22" edge="1">
          <mxGeometry width="50" height="50" relative="1" as="geometry">
            <mxPoint x="320" y="420" as="sourcePoint" />
            <mxPoint x="390" y="420" as="targetPoint" />
          </mxGeometry>
        </mxCell>
        <mxCell id="7nEyidCCf9qnmZsaLRMb-22" value="词典测试（支持结果在线查看与导出）" style="rounded=0;whiteSpace=wrap;html=1;fontSize=16;fontStyle=0" parent="1" vertex="1">
          <mxGeometry x="390" y="390" width="120" height="60" as="geometry" />
        </mxCell>
        <mxCell id="7nEyidCCf9qnmZsaLRMb-23" value="" style="endArrow=none;html=1;rounded=0;fontSize=16;fontStyle=0" parent="1" target="7nEyidCCf9qnmZsaLRMb-24" edge="1">
          <mxGeometry width="50" height="50" relative="1" as="geometry">
            <mxPoint x="320" y="520" as="sourcePoint" />
            <mxPoint x="400" y="530" as="targetPoint" />
          </mxGeometry>
        </mxCell>
        <mxCell id="7nEyidCCf9qnmZsaLRMb-24" value="资源上传（公开/需要申请）" style="rounded=0;whiteSpace=wrap;html=1;fontSize=16;fontStyle=0" parent="1" vertex="1">
          <mxGeometry x="390" y="490" width="120" height="60" as="geometry" />
        </mxCell>
        <mxCell id="7nEyidCCf9qnmZsaLRMb-25" value="" style="endArrow=none;html=1;rounded=0;fontSize=16;fontStyle=0" parent="1" target="7nEyidCCf9qnmZsaLRMb-27" edge="1">
          <mxGeometry width="50" height="50" relative="1" as="geometry">
            <mxPoint x="320" y="610" as="sourcePoint" />
            <mxPoint x="390" y="600" as="targetPoint" />
          </mxGeometry>
        </mxCell>
        <mxCell id="7nEyidCCf9qnmZsaLRMb-27" value="资源下载申请" style="rounded=0;whiteSpace=wrap;html=1;fontSize=16;fontStyle=0" parent="1" vertex="1">
          <mxGeometry x="390" y="580" width="120" height="60" as="geometry" />
        </mxCell>
        <mxCell id="7nEyidCCf9qnmZsaLRMb-28" value="" style="endArrow=none;html=1;rounded=0;fontSize=16;fontStyle=0" parent="1" target="7nEyidCCf9qnmZsaLRMb-29" edge="1">
          <mxGeometry width="50" height="50" relative="1" as="geometry">
            <mxPoint x="320" y="710" as="sourcePoint" />
            <mxPoint x="390" y="710" as="targetPoint" />
          </mxGeometry>
        </mxCell>
        <mxCell id="7nEyidCCf9qnmZsaLRMb-29" value="个人信息管理" style="rounded=0;whiteSpace=wrap;html=1;fontSize=16;fontStyle=0" parent="1" vertex="1">
          <mxGeometry x="390" y="680" width="120" height="60" as="geometry" />
        </mxCell>
        <mxCell id="7nEyidCCf9qnmZsaLRMb-31" value="" style="endArrow=none;html=1;rounded=0;entryX=0.25;entryY=1;entryDx=0;entryDy=0;fontSize=16;fontStyle=0" parent="1" target="7nEyidCCf9qnmZsaLRMb-4" edge="1">
          <mxGeometry width="50" height="50" relative="1" as="geometry">
            <mxPoint x="680" y="610" as="sourcePoint" />
            <mxPoint x="590" y="340" as="targetPoint" />
          </mxGeometry>
        </mxCell>
        <mxCell id="7nEyidCCf9qnmZsaLRMb-32" value="" style="endArrow=none;html=1;rounded=0;fontSize=16;fontStyle=0" parent="1" target="7nEyidCCf9qnmZsaLRMb-33" edge="1">
          <mxGeometry width="50" height="50" relative="1" as="geometry">
            <mxPoint x="680" y="320" as="sourcePoint" />
            <mxPoint x="750" y="320" as="targetPoint" />
          </mxGeometry>
        </mxCell>
        <mxCell id="7nEyidCCf9qnmZsaLRMb-33" value="用户管理" style="rounded=0;whiteSpace=wrap;html=1;fontSize=16;fontStyle=0" parent="1" vertex="1">
          <mxGeometry x="750" y="290" width="120" height="60" as="geometry" />
        </mxCell>
        <mxCell id="7nEyidCCf9qnmZsaLRMb-34" value="资源管理" style="rounded=0;whiteSpace=wrap;html=1;fontSize=16;fontStyle=0" parent="1" vertex="1">
          <mxGeometry x="750" y="390" width="120" height="60" as="geometry" />
        </mxCell>
        <mxCell id="7nEyidCCf9qnmZsaLRMb-35" value="" style="endArrow=none;html=1;rounded=0;entryX=0;entryY=0.5;entryDx=0;entryDy=0;fontSize=16;fontStyle=0" parent="1" target="7nEyidCCf9qnmZsaLRMb-34" edge="1">
          <mxGeometry width="50" height="50" relative="1" as="geometry">
            <mxPoint x="680" y="420" as="sourcePoint" />
            <mxPoint x="750" y="380" as="targetPoint" />
          </mxGeometry>
        </mxCell>
        <mxCell id="7nEyidCCf9qnmZsaLRMb-36" value="" style="endArrow=none;html=1;rounded=0;fontSize=16;fontStyle=0" parent="1" target="7nEyidCCf9qnmZsaLRMb-37" edge="1">
          <mxGeometry width="50" height="50" relative="1" as="geometry">
            <mxPoint x="680" y="520" as="sourcePoint" />
            <mxPoint x="750" y="520" as="targetPoint" />
          </mxGeometry>
        </mxCell>
        <mxCell id="7nEyidCCf9qnmZsaLRMb-37" value="研究进展展示管理" style="rounded=0;whiteSpace=wrap;html=1;fontSize=16;fontStyle=0" parent="1" vertex="1">
          <mxGeometry x="750" y="490" width="120" height="60" as="geometry" />
        </mxCell>
        <mxCell id="7nEyidCCf9qnmZsaLRMb-38" value="" style="endArrow=none;html=1;rounded=0;fontSize=16;fontStyle=0" parent="1" target="7nEyidCCf9qnmZsaLRMb-39" edge="1">
          <mxGeometry width="50" height="50" relative="1" as="geometry">
            <mxPoint x="680" y="610" as="sourcePoint" />
            <mxPoint x="750" y="610" as="targetPoint" />
          </mxGeometry>
        </mxCell>
        <mxCell id="7nEyidCCf9qnmZsaLRMb-39" value="平台流量分析" style="rounded=0;whiteSpace=wrap;html=1;fontSize=16;fontStyle=0" parent="1" vertex="1">
          <mxGeometry x="750" y="580" width="120" height="60" as="geometry" />
        </mxCell>
      </root>
    </mxGraphModel>
  </diagram>
  <diagram id="LBA_Bw5v5a3BzuC-6leT" name="第 2 页">
    <mxGraphModel dx="1780" dy="382" grid="1" gridSize="10" guides="1" tooltips="1" connect="1" arrows="1" fold="1" page="0" pageScale="1" pageWidth="827" pageHeight="1169" math="0" shadow="0">
      <root>
        <mxCell id="0" />
        <mxCell id="1" parent="0" />
        <mxCell id="ov7ZJ55bOzSd0H0Fgh_i-3" style="edgeStyle=orthogonalEdgeStyle;rounded=0;orthogonalLoop=1;jettySize=auto;html=1;entryX=0;entryY=0.5;entryDx=0;entryDy=0;fontSize=17;" edge="1" parent="1" source="ov7ZJ55bOzSd0H0Fgh_i-1" target="ov7ZJ55bOzSd0H0Fgh_i-2">
          <mxGeometry relative="1" as="geometry" />
        </mxCell>
        <mxCell id="ov7ZJ55bOzSd0H0Fgh_i-4" value="根据CLIWC和·LIWC更新" style="edgeLabel;html=1;align=center;verticalAlign=middle;resizable=0;points=[];fontSize=17;" vertex="1" connectable="0" parent="ov7ZJ55bOzSd0H0Fgh_i-3">
          <mxGeometry x="-0.1244" y="-2" relative="1" as="geometry">
            <mxPoint as="offset" />
          </mxGeometry>
        </mxCell>
        <mxCell id="ov7ZJ55bOzSd0H0Fgh_i-1" value="旧版SCLIWC" style="rounded=0;whiteSpace=wrap;html=1;fontSize=17;" vertex="1" parent="1">
          <mxGeometry x="-330" y="420" width="120" height="60" as="geometry" />
        </mxCell>
        <mxCell id="ov7ZJ55bOzSd0H0Fgh_i-5" style="edgeStyle=orthogonalEdgeStyle;rounded=0;orthogonalLoop=1;jettySize=auto;html=1;exitX=1;exitY=0.5;exitDx=0;exitDy=0;fontSize=17;" edge="1" parent="1" source="ov7ZJ55bOzSd0H0Fgh_i-2" target="ov7ZJ55bOzSd0H0Fgh_i-7">
          <mxGeometry relative="1" as="geometry">
            <mxPoint x="210.33333333333348" y="450" as="targetPoint" />
          </mxGeometry>
        </mxCell>
        <mxCell id="ov7ZJ55bOzSd0H0Fgh_i-6" value="根据大模型和Word2vec拓展" style="edgeLabel;html=1;align=center;verticalAlign=middle;resizable=0;points=[];fontSize=17;" vertex="1" connectable="0" parent="ov7ZJ55bOzSd0H0Fgh_i-5">
          <mxGeometry x="-0.1499" y="2" relative="1" as="geometry">
            <mxPoint as="offset" />
          </mxGeometry>
        </mxCell>
        <mxCell id="ov7ZJ55bOzSd0H0Fgh_i-2" value="SCLIWC(temp)" style="rounded=0;whiteSpace=wrap;html=1;fontSize=17;" vertex="1" parent="1">
          <mxGeometry x="10" y="420" width="120" height="60" as="geometry" />
        </mxCell>
        <mxCell id="ov7ZJ55bOzSd0H0Fgh_i-24" style="edgeStyle=orthogonalEdgeStyle;rounded=0;orthogonalLoop=1;jettySize=auto;html=1;fontSize=17;" edge="1" parent="1" source="ov7ZJ55bOzSd0H0Fgh_i-7">
          <mxGeometry relative="1" as="geometry">
            <mxPoint x="210" y="560" as="targetPoint" />
            <Array as="points">
              <mxPoint x="450" y="510" />
              <mxPoint x="210" y="510" />
            </Array>
          </mxGeometry>
        </mxCell>
        <mxCell id="ov7ZJ55bOzSd0H0Fgh_i-25" style="edgeStyle=orthogonalEdgeStyle;rounded=0;orthogonalLoop=1;jettySize=auto;html=1;exitX=1;exitY=0.5;exitDx=0;exitDy=0;fontSize=17;" edge="1" parent="1" source="ov7ZJ55bOzSd0H0Fgh_i-7" target="ov7ZJ55bOzSd0H0Fgh_i-26">
          <mxGeometry relative="1" as="geometry">
            <mxPoint x="620" y="450" as="targetPoint" />
          </mxGeometry>
        </mxCell>
        <mxCell id="ov7ZJ55bOzSd0H0Fgh_i-7" value="SCLIWC-24" style="rounded=0;whiteSpace=wrap;html=1;fontSize=17;" vertex="1" parent="1">
          <mxGeometry x="390.00333333333344" y="420" width="120" height="60" as="geometry" />
        </mxCell>
        <mxCell id="ov7ZJ55bOzSd0H0Fgh_i-9" style="edgeStyle=orthogonalEdgeStyle;rounded=0;orthogonalLoop=1;jettySize=auto;html=1;fontSize=17;" edge="1" parent="1" source="ov7ZJ55bOzSd0H0Fgh_i-8" target="ov7ZJ55bOzSd0H0Fgh_i-10">
          <mxGeometry relative="1" as="geometry">
            <mxPoint x="380" y="560" as="targetPoint" />
          </mxGeometry>
        </mxCell>
        <mxCell id="ov7ZJ55bOzSd0H0Fgh_i-8" value="微博文本数据" style="rounded=0;whiteSpace=wrap;html=1;fontSize=17;" vertex="1" parent="1">
          <mxGeometry x="20" y="530" width="120" height="60" as="geometry" />
        </mxCell>
        <mxCell id="ov7ZJ55bOzSd0H0Fgh_i-13" style="edgeStyle=orthogonalEdgeStyle;rounded=0;orthogonalLoop=1;jettySize=auto;html=1;exitX=1;exitY=0.5;exitDx=0;exitDy=0;fontSize=17;" edge="1" parent="1" source="ov7ZJ55bOzSd0H0Fgh_i-10" target="ov7ZJ55bOzSd0H0Fgh_i-14">
          <mxGeometry relative="1" as="geometry">
            <mxPoint x="480" y="560" as="targetPoint" />
          </mxGeometry>
        </mxCell>
        <mxCell id="ov7ZJ55bOzSd0H0Fgh_i-10" value="文本特征" style="rounded=0;whiteSpace=wrap;html=1;fontSize=17;" vertex="1" parent="1">
          <mxGeometry x="280" y="530" width="120" height="60" as="geometry" />
        </mxCell>
        <mxCell id="ov7ZJ55bOzSd0H0Fgh_i-12" value="特征提取" style="text;html=1;align=center;verticalAlign=middle;resizable=0;points=[];autosize=1;strokeColor=none;fillColor=none;fontSize=17;" vertex="1" parent="1">
          <mxGeometry x="165" y="570" width="90" height="30" as="geometry" />
        </mxCell>
        <mxCell id="ov7ZJ55bOzSd0H0Fgh_i-32" style="edgeStyle=orthogonalEdgeStyle;rounded=0;orthogonalLoop=1;jettySize=auto;html=1;exitX=0.5;exitY=1;exitDx=0;exitDy=0;fontSize=17;" edge="1" parent="1" source="ov7ZJ55bOzSd0H0Fgh_i-14">
          <mxGeometry relative="1" as="geometry">
            <mxPoint x="640" y="770" as="targetPoint" />
          </mxGeometry>
        </mxCell>
        <mxCell id="ov7ZJ55bOzSd0H0Fgh_i-35" value="模型部署" style="edgeLabel;html=1;align=center;verticalAlign=middle;resizable=0;points=[];fontSize=17;" vertex="1" connectable="0" parent="ov7ZJ55bOzSd0H0Fgh_i-32">
          <mxGeometry x="-0.2117" relative="1" as="geometry">
            <mxPoint y="1" as="offset" />
          </mxGeometry>
        </mxCell>
        <mxCell id="ov7ZJ55bOzSd0H0Fgh_i-14" value="回归模型&lt;br style=&quot;font-size: 17px;&quot;&gt;（效果评估）" style="rounded=0;whiteSpace=wrap;html=1;fontSize=17;" vertex="1" parent="1">
          <mxGeometry x="580" y="530" width="120" height="60" as="geometry" />
        </mxCell>
        <mxCell id="ov7ZJ55bOzSd0H0Fgh_i-15" value="模型训练" style="text;html=1;align=center;verticalAlign=middle;resizable=0;points=[];autosize=1;strokeColor=none;fillColor=none;fontSize=17;" vertex="1" parent="1">
          <mxGeometry x="450" y="520" width="90" height="30" as="geometry" />
        </mxCell>
        <mxCell id="ov7ZJ55bOzSd0H0Fgh_i-16" value="微博用户" style="rounded=0;whiteSpace=wrap;html=1;fontSize=17;" vertex="1" parent="1">
          <mxGeometry x="-140" y="580" width="120" height="60" as="geometry" />
        </mxCell>
        <mxCell id="ov7ZJ55bOzSd0H0Fgh_i-20" style="edgeStyle=orthogonalEdgeStyle;rounded=0;orthogonalLoop=1;jettySize=auto;html=1;exitX=1;exitY=0.5;exitDx=0;exitDy=0;fontSize=17;" edge="1" parent="1" source="ov7ZJ55bOzSd0H0Fgh_i-17" target="ov7ZJ55bOzSd0H0Fgh_i-21">
          <mxGeometry relative="1" as="geometry">
            <mxPoint x="270" y="660" as="targetPoint" />
          </mxGeometry>
        </mxCell>
        <mxCell id="ov7ZJ55bOzSd0H0Fgh_i-17" value="大五人格问卷数据" style="rounded=0;whiteSpace=wrap;html=1;fontSize=17;" vertex="1" parent="1">
          <mxGeometry x="20" y="630" width="120" height="60" as="geometry" />
        </mxCell>
        <mxCell id="ov7ZJ55bOzSd0H0Fgh_i-18" value="" style="endArrow=classic;html=1;rounded=0;exitX=1;exitY=0.5;exitDx=0;exitDy=0;entryX=0;entryY=0.5;entryDx=0;entryDy=0;fontSize=17;" edge="1" parent="1" source="ov7ZJ55bOzSd0H0Fgh_i-16" target="ov7ZJ55bOzSd0H0Fgh_i-8">
          <mxGeometry width="50" height="50" relative="1" as="geometry">
            <mxPoint x="-70" y="560" as="sourcePoint" />
            <mxPoint x="-20" y="510" as="targetPoint" />
          </mxGeometry>
        </mxCell>
        <mxCell id="ov7ZJ55bOzSd0H0Fgh_i-19" value="" style="endArrow=classic;html=1;rounded=0;exitX=1;exitY=0.5;exitDx=0;exitDy=0;entryX=0;entryY=0.5;entryDx=0;entryDy=0;fontSize=17;" edge="1" parent="1" source="ov7ZJ55bOzSd0H0Fgh_i-16" target="ov7ZJ55bOzSd0H0Fgh_i-17">
          <mxGeometry width="50" height="50" relative="1" as="geometry">
            <mxPoint x="-50" y="720" as="sourcePoint" />
            <mxPoint y="670" as="targetPoint" />
          </mxGeometry>
        </mxCell>
        <mxCell id="ov7ZJ55bOzSd0H0Fgh_i-23" style="edgeStyle=orthogonalEdgeStyle;rounded=0;orthogonalLoop=1;jettySize=auto;html=1;exitX=1;exitY=0.5;exitDx=0;exitDy=0;fontSize=17;" edge="1" parent="1" source="ov7ZJ55bOzSd0H0Fgh_i-21">
          <mxGeometry relative="1" as="geometry">
            <mxPoint x="500" y="560" as="targetPoint" />
            <Array as="points">
              <mxPoint x="500" y="660" />
              <mxPoint x="500" y="560" />
            </Array>
          </mxGeometry>
        </mxCell>
        <mxCell id="ov7ZJ55bOzSd0H0Fgh_i-21" value="大五人格得分" style="rounded=0;whiteSpace=wrap;html=1;fontSize=17;" vertex="1" parent="1">
          <mxGeometry x="280" y="630" width="120" height="60" as="geometry" />
        </mxCell>
        <mxCell id="ov7ZJ55bOzSd0H0Fgh_i-26" value="效度检验" style="rounded=0;whiteSpace=wrap;html=1;fontSize=17;" vertex="1" parent="1">
          <mxGeometry x="570" y="420" width="120" height="60" as="geometry" />
        </mxCell>
        <mxCell id="ov7ZJ55bOzSd0H0Fgh_i-29" style="edgeStyle=orthogonalEdgeStyle;rounded=0;orthogonalLoop=1;jettySize=auto;html=1;exitX=1;exitY=0.5;exitDx=0;exitDy=0;fontSize=17;" edge="1" parent="1" source="ov7ZJ55bOzSd0H0Fgh_i-28" target="ov7ZJ55bOzSd0H0Fgh_i-30">
          <mxGeometry relative="1" as="geometry">
            <mxPoint x="500" y="769.7647058823529" as="targetPoint" />
          </mxGeometry>
        </mxCell>
        <mxCell id="ov7ZJ55bOzSd0H0Fgh_i-28" value="网站构建" style="rounded=0;whiteSpace=wrap;html=1;fontSize=17;" vertex="1" parent="1">
          <mxGeometry x="300" y="740" width="120" height="60" as="geometry" />
        </mxCell>
        <mxCell id="ov7ZJ55bOzSd0H0Fgh_i-31" style="edgeStyle=orthogonalEdgeStyle;rounded=0;orthogonalLoop=1;jettySize=auto;html=1;exitX=1;exitY=0.5;exitDx=0;exitDy=0;fontSize=17;" edge="1" parent="1" source="ov7ZJ55bOzSd0H0Fgh_i-30" target="ov7ZJ55bOzSd0H0Fgh_i-33">
          <mxGeometry relative="1" as="geometry">
            <mxPoint x="680" y="770" as="targetPoint" />
          </mxGeometry>
        </mxCell>
        <mxCell id="ov7ZJ55bOzSd0H0Fgh_i-30" value="需求分析&lt;br style=&quot;font-size: 17px;&quot;&gt;概要设计&lt;br style=&quot;font-size: 17px;&quot;&gt;详细设计" style="rounded=0;whiteSpace=wrap;html=1;fontSize=17;" vertex="1" parent="1">
          <mxGeometry x="480" y="740.0047058823529" width="120" height="60" as="geometry" />
        </mxCell>
        <mxCell id="ov7ZJ55bOzSd0H0Fgh_i-33" value="网站测试" style="rounded=0;whiteSpace=wrap;html=1;fontSize=17;" vertex="1" parent="1">
          <mxGeometry x="680" y="740" width="120" height="60" as="geometry" />
        </mxCell>
      </root>
    </mxGraphModel>
  </diagram>
</mxfile>
